<?xml version="1.0" standalone="no"?>
<!DOCTYPE svg PUBLIC "-//W3C//DTD SVG 20010904//EN"
 "http://www.w3.org/TR/2001/REC-SVG-20010904/DTD/svg10.dtd">
<svg version="1.0" xmlns="http://www.w3.org/2000/svg"
 width="326.000000pt" height="326.000000pt" viewBox="0 0 326.000000 326.000000"
 preserveAspectRatio="xMidYMid meet">
<metadata>
Created by potrace 1.14, written by Peter Selinger 2001-2017
</metadata>
<g transform="translate(0.000000,326.000000) scale(0.100000,-0.100000)"
fill="#000000" stroke="none">
<path d="M1902 2668 c-7 -7 -12 -9 -12 -5 0 8 -16 -3 -55 -39 -13 -12 -26 -19
-29 -16 -3 3 -6 -2 -6 -10 0 -9 -5 -18 -10 -20 -6 -2 -8 -16 -4 -34 4 -20 15
-34 35 -43 17 -7 28 -15 25 -18 -3 -3 4 -14 14 -25 24 -26 15 -48 -21 -48 -15
0 -50 -4 -76 -10 -26 -5 -61 -11 -78 -14 -16 -2 -55 -10 -85 -16 -30 -6 -71
-14 -90 -16 -19 -3 -47 -9 -62 -14 -14 -4 -29 -6 -32 -2 -4 3 -14 7 -23 8 -52
8 -78 45 -67 95 3 13 6 29 6 34 1 6 16 22 34 35 50 37 44 49 -25 45 -33 -2
-69 -8 -80 -15 -12 -6 -21 -8 -21 -5 0 3 -10 -3 -22 -14 -11 -11 -24 -18 -29
-16 -13 9 -75 -73 -89 -117 -14 -46 -19 -96 -10 -113 2 -5 5 -12 6 -15 6 -31
36 -90 46 -90 5 0 19 -9 31 -20 12 -11 27 -18 34 -16 7 3 14 2 17 -3 4 -6 131
-8 131 -1 0 1 15 3 33 4 38 2 41 -6 7 -28 -14 -9 -25 -25 -25 -36 0 -11 -4
-20 -8 -20 -4 0 -8 -16 -8 -35 0 -19 4 -35 9 -35 4 0 6 -4 2 -9 -3 -5 -1 -12
5 -16 6 -4 8 -10 5 -15 -3 -4 8 -14 25 -22 16 -7 30 -15 30 -18 0 -3 8 -7 18
-8 9 -1 26 -3 37 -5 11 -2 41 2 67 9 60 15 70 3 29 -37 -17 -16 -27 -29 -23
-29 20 0 -59 -33 -103 -42 -58 -13 -168 -14 -208 -3 -28 7 -54 46 -51 75 1 8
2 27 3 43 1 19 16 41 48 73 37 35 44 47 34 54 -18 11 -113 1 -127 -12 -3 -4
-12 -4 -20 -1 -8 3 -14 0 -14 -7 0 -6 -4 -9 -9 -6 -12 8 -100 -42 -131 -74
-37 -36 -63 -97 -68 -159 -5 -57 14 -161 29 -161 5 0 9 -6 9 -14 0 -36 143
-106 192 -93 10 3 18 0 18 -5 0 -12 -42 -52 -57 -55 -9 -2 -108 -65 -130 -83
-7 -6 -18 -10 -26 -10 -7 0 -18 -5 -25 -12 -7 -7 -12 -9 -12 -4 0 4 -7 0 -16
-9 -12 -12 -19 -13 -30 -4 -8 6 -11 15 -8 20 5 9 11 40 19 109 3 19 7 51 10
70 13 79 13 150 0 150 -13 0 -30 -28 -27 -42 1 -5 -3 -8 -8 -8 -5 0 -9 -3 -8
-7 3 -15 -14 -63 -22 -63 -5 0 -11 -13 -15 -30 -4 -16 -11 -33 -16 -36 -10 -6
-26 -41 -27 -58 0 -5 -4 -12 -9 -15 -4 -3 -19 -27 -33 -53 -13 -27 -28 -48
-32 -48 -5 0 -8 -7 -8 -15 0 -16 -8 -27 -42 -66 -10 -10 -18 -26 -18 -35 0 -8
-4 -12 -10 -9 -5 3 -10 -2 -10 -11 0 -10 -3 -15 -6 -12 -3 4 -25 -13 -49 -35
-116 -112 -189 -139 -281 -105 -33 12 -66 56 -63 86 3 30 -1 57 -10 72 -8 12
-14 10 -33 -10 -30 -31 -63 -83 -60 -92 1 -5 -2 -8 -8 -8 -5 0 -12 -17 -16
-37 -4 -21 -9 -42 -12 -47 -7 -13 -5 -88 3 -108 4 -9 4 -21 1 -26 -3 -5 3 -18
13 -29 10 -11 22 -29 25 -41 4 -11 16 -24 27 -27 10 -4 17 -11 14 -16 -4 -5 1
-9 9 -9 9 0 16 -5 16 -12 0 -6 3 -9 6 -5 4 3 13 0 21 -8 8 -8 23 -15 33 -15
10 0 22 -5 25 -10 16 -27 260 2 273 32 2 5 8 6 13 2 5 -3 9 0 9 5 0 6 7 11 15
11 8 0 15 5 15 10 0 6 5 10 11 10 15 0 69 56 69 72 0 6 3 9 6 5 9 -8 85 111
87 134 1 11 5 19 9 19 4 0 8 8 8 18 0 10 3 22 7 26 5 4 8 11 9 14 3 26 18 40
37 35 12 -2 28 -5 35 -5 6 -1 12 -5 12 -9 0 -6 81 -5 88 1 1 1 5 3 10 4 28 5
122 42 122 48 0 4 6 8 14 8 12 0 77 62 174 167 17 17 27 34 24 37 -3 3 0 6 6
6 7 0 12 7 12 16 0 8 4 13 8 10 5 -3 19 12 33 33 13 22 27 37 32 34 4 -2 7 3
7 12 0 9 4 14 9 11 9 -6 20 11 17 26 0 4 9 15 22 23 12 9 22 23 22 31 0 8 4
13 9 10 4 -3 17 10 27 29 10 19 24 35 30 35 7 0 15 11 18 25 4 14 10 23 15 20
5 -2 11 2 15 10 3 8 12 15 21 15 8 0 15 5 15 10 0 6 6 10 13 10 8 0 27 6 43
14 122 59 178 76 261 78 57 1 152 -21 205 -48 15 -8 29 -14 30 -13 16 10 178
-114 178 -136 0 -2 19 -24 43 -49 61 -63 85 -94 79 -101 -3 -3 0 -5 7 -5 14 0
47 -30 34 -30 -4 0 0 -5 10 -11 9 -6 15 -14 12 -20 -4 -5 1 -9 9 -9 9 0 16 -4
16 -8 0 -10 105 -127 165 -185 39 -37 85 -67 115 -75 39 -9 118 -7 148 4 17 7
32 10 32 6 0 -4 5 1 11 11 5 9 16 17 23 17 8 0 17 7 20 16 3 8 11 12 17 8 8
-4 9 -3 5 4 -4 6 2 17 14 24 11 7 20 21 20 30 0 10 7 18 15 18 8 0 17 11 21
25 3 14 10 25 15 25 5 0 9 7 9 15 0 8 4 15 9 15 4 0 8 12 7 28 -1 19 -5 26
-16 23 -120 -32 -291 -15 -322 33 -5 6 -8 7 -8 1 0 -6 -4 -5 -8 1 -4 7 -36 27
-71 46 -36 18 -67 40 -69 47 -3 10 0 12 11 8 9 -3 19 -2 22 3 4 6 21 10 39 10
37 0 139 47 130 61 -3 5 2 9 11 9 9 0 13 5 10 10 -3 6 0 13 9 16 13 5 33 58
28 77 -1 4 2 7 7 7 5 0 7 24 4 53 -2 28 -5 60 -6 70 -1 9 -5 17 -10 17 -4 0
-6 4 -2 9 3 5 -2 17 -11 25 -8 9 -13 16 -11 16 3 0 -12 17 -32 38 -38 41 -110
89 -125 84 -5 -2 -12 2 -15 7 -7 10 -51 20 -123 26 -26 2 -41 -2 -50 -14 -7
-9 -8 -13 -4 -9 5 4 22 -5 37 -21 15 -16 29 -27 32 -25 9 10 36 -73 33 -103
-4 -34 -32 -76 -56 -82 -53 -14 -185 -1 -275 27 -50 15 -114 65 -115 90 0 6
-5 12 -12 12 -9 0 -8 3 1 13 11 10 14 10 18 0 3 -7 15 -13 28 -13 13 0 27 -5
30 -11 4 -6 13 -8 21 -5 7 3 16 1 18 -3 5 -8 35 -7 76 2 33 7 90 41 90 54 0
23 1 28 12 40 14 17 0 72 -28 109 -27 36 -23 45 14 37 36 -8 120 -8 154 -1 14
4 37 13 50 22 14 9 28 13 33 9 4 -5 5 -3 2 4 -4 6 -4 13 0 15 5 1 18 26 31 53
17 36 22 62 19 95 -6 62 -58 160 -86 160 -6 0 -11 4 -11 9 0 8 -76 42 -102 47
-5 1 -9 3 -10 4 -2 1 -27 3 -55 5 -39 1 -53 -2 -53 -12 0 -7 4 -13 9 -13 6 0
22 -11 37 -25 15 -14 23 -25 18 -25 -4 0 -3 -5 4 -12 7 -7 12 -23 12 -35 0
-31 -39 -83 -61 -83 -10 0 -20 -4 -23 -9 -4 -6 -19 -6 -39 0 -18 5 -51 10 -73
12 -23 2 -46 7 -53 11 -6 4 -11 5 -11 3 0 -3 -21 1 -47 9 -25 8 -61 14 -80 14
-18 0 -33 3 -33 8 0 4 -15 7 -32 8 -83 2 -108 8 -108 26 0 10 7 21 15 24 8 4
13 10 10 14 -3 4 14 20 36 35 33 21 40 31 35 48 -3 12 -6 25 -6 30 0 4 -7 7
-16 7 -8 0 -13 3 -11 8 2 4 -4 15 -15 25 -10 9 -18 14 -18 10 0 -5 -4 -3 -8 2
-27 38 -105 58 -130 33z m-59 -361 c15 -6 16 -10 5 -29 -7 -13 -11 -26 -10
-30 1 -5 -3 -8 -10 -8 -6 0 -8 -3 -5 -6 4 -4 -4 -21 -16 -38 -12 -17 -21 -33
-20 -36 1 -3 -12 -29 -28 -57 -27 -47 -43 -59 -71 -54 -5 0 -8 -3 -8 -7 0 -8
-21 -11 -85 -12 -29 0 -45 6 -57 21 -24 29 -22 50 7 78 34 31 32 38 -12 36
l-37 -2 23 18 c12 10 45 27 74 38 29 10 75 30 102 42 28 13 53 22 58 21 4 -1
7 3 7 9 0 5 4 8 9 5 4 -3 17 1 27 8 10 8 21 13 24 12 3 -2 13 -6 23 -9z m287
-19 c30 -12 63 -28 74 -37 10 -9 21 -15 25 -15 16 3 139 -47 152 -62 7 -8 1
-11 -21 -10 -16 0 -30 -2 -30 -4 1 -21 14 -49 21 -45 4 3 13 -4 19 -15 8 -14
8 -20 0 -20 -6 0 -9 -4 -6 -9 10 -16 -30 -41 -72 -44 -23 -2 -43 0 -44 4 -2 4
-19 10 -38 13 -19 3 -46 8 -60 12 -14 3 -34 7 -45 9 -11 1 -28 6 -37 10 -9 4
-21 4 -27 1 -5 -4 -12 -2 -16 4 -3 5 -35 10 -70 10 -39 0 -67 5 -71 12 -4 6
-2 14 4 16 7 2 12 10 12 18 0 8 5 14 11 14 5 0 8 4 4 9 -3 5 2 16 10 25 9 8
16 18 15 21 0 3 7 22 16 43 10 20 18 39 18 42 8 37 58 36 156 -2z m-114 -286
c6 -4 19 -22 29 -39 11 -18 23 -33 28 -33 4 0 5 -4 2 -10 -3 -5 -1 -10 4 -10
6 0 11 -6 11 -14 0 -11 -25 -14 -127 -15 -71 -1 -146 -4 -169 -7 -33 -5 -41
-3 -41 10 0 9 4 16 9 16 5 0 6 5 3 10 -3 6 -3 10 2 10 4 0 14 13 21 29 8 18
27 34 50 44 38 16 159 22 178 9z"/>
<path d="M595 2413 c-11 -3 -24 -9 -29 -14 -6 -5 -17 -9 -25 -9 -8 0 -29 -11
-48 -26 -18 -14 -33 -23 -33 -20 0 4 -8 -2 -18 -11 -11 -10 -17 -21 -15 -25 2
-5 0 -8 -5 -8 -5 0 -20 -24 -32 -52 -27 -61 -27 -114 -1 -173 20 -44 77 -105
98 -105 8 0 12 -4 9 -8 -3 -5 0 -9 7 -9 7 0 28 -4 47 -8 19 -5 50 -8 68 -7 45
1 138 29 155 47 8 8 17 11 21 8 3 -3 8 2 12 11 3 9 9 14 14 11 4 -2 20 9 35
25 15 16 32 27 37 24 4 -3 8 0 8 6 0 5 14 24 30 42 17 17 30 35 30 40 0 5 6 6
13 2 6 -4 9 -4 5 1 -4 4 1 20 11 34 10 14 21 38 25 53 5 24 4 26 -19 22 -14
-2 -47 -13 -73 -23 -26 -10 -55 -17 -64 -16 -10 2 -18 0 -18 -4 0 -4 -6 -8
-12 -9 -7 0 -29 -4 -48 -7 -108 -21 -184 22 -183 103 2 46 3 55 10 49 7 -7 36
30 39 50 2 13 -14 15 -51 6z"/>
<path d="M320 1802 c-32 -21 -102 -92 -92 -92 4 0 0 -6 -9 -13 -27 -21 -47
-90 -47 -160 0 -37 5 -67 9 -67 5 0 9 -11 9 -25 0 -14 4 -25 9 -25 5 0 12 -11
15 -24 3 -14 15 -28 26 -31 11 -3 20 -11 20 -17 0 -6 3 -9 6 -6 3 4 16 1 29
-6 15 -8 52 -11 97 -9 97 5 98 5 98 16 0 6 3 8 6 4 3 -3 20 7 38 23 17 17 35
30 39 30 5 0 6 4 2 9 -3 5 4 12 15 16 12 4 20 15 20 27 0 12 3 18 6 15 4 -4
26 21 50 56 24 34 48 68 54 75 6 6 7 12 3 12 -4 0 -1 5 7 10 8 5 15 13 15 17
0 4 20 43 43 85 24 43 40 82 37 88 -9 15 -35 12 -41 -5 -4 -8 -12 -15 -20 -15
-7 0 -18 -8 -23 -17 -6 -10 -11 -14 -11 -9 0 6 -13 -3 -30 -19 -16 -16 -30
-25 -30 -20 0 4 -9 0 -20 -10 -11 -10 -20 -14 -20 -9 0 5 -7 -2 -16 -14 -8
-12 -20 -20 -25 -17 -5 4 -9 1 -9 -4 0 -6 -6 -11 -14 -11 -8 0 -22 -7 -30 -16
-9 -9 -37 -16 -68 -18 -48 -3 -55 0 -85 32 -18 19 -34 40 -34 46 -1 6 -2 18
-3 26 0 8 5 24 12 36 6 11 9 24 5 27 -3 4 -1 7 6 7 7 0 9 5 6 10 -9 15 -27 12
-55 -8z"/>
<path d="M1640 1580 c0 -5 5 -10 11 -10 5 0 7 5 4 10 -3 6 -8 10 -11 10 -2 0
-4 -4 -4 -10z"/>
<path d="M2252 1581 l-24 -6 21 -19 c25 -23 28 -74 5 -83 -30 -11 -129 -4
-168 12 -20 9 -203 11 -268 4 -21 -2 -38 -8 -38 -12 0 -5 -4 -5 -10 -2 -5 3
-15 3 -22 -1 -15 -10 -97 -11 -111 -2 -17 10 -17 66 0 72 12 5 13 9 3 21 -14
17 -46 20 -55 5 -4 -6 -11 -8 -16 -5 -5 4 -12 -1 -15 -9 -3 -9 -9 -14 -13 -11
-15 8 -46 -61 -46 -102 -1 -24 3 -43 7 -43 4 0 8 -5 8 -11 0 -15 22 -35 47
-43 45 -14 64 -14 98 0 19 8 35 12 35 10 0 -3 17 2 37 10 20 9 45 18 55 20 10
2 28 7 41 10 70 18 68 19 65 -15 -1 -17 -6 -31 -11 -31 -4 0 -6 -4 -3 -8 3 -5
-1 -20 -9 -35 -8 -15 -12 -27 -9 -27 3 0 -1 -6 -8 -14 -7 -8 -16 -12 -20 -9
-5 2 -13 1 -19 -3 -7 -4 -26 -8 -43 -10 -17 -1 -45 -8 -61 -14 -17 -7 -46 -14
-67 -16 -20 -2 -47 -8 -60 -12 -27 -11 -82 -5 -86 9 -2 5 -10 9 -18 9 -8 0
-14 6 -15 13 0 6 -2 22 -3 35 -2 15 7 31 26 47 15 13 28 26 28 30 0 15 -93 -1
-146 -26 -32 -15 -55 -28 -50 -28 4 -1 -2 -9 -15 -20 -19 -15 -23 -29 -25 -84
-2 -59 0 -69 23 -91 14 -14 32 -26 39 -26 8 0 14 -3 14 -8 0 -10 142 -12 155
-2 8 6 69 23 126 34 8 2 27 8 42 14 15 7 31 11 35 11 4 -1 9 0 12 1 31 12 50
4 33 -14 -5 -4 -8 -11 -8 -14 0 -9 -106 -117 -120 -122 -5 -3 -17 -10 -25 -17
-8 -7 -19 -14 -25 -15 -5 -1 -15 -6 -22 -12 -37 -33 -39 -34 -73 -43 -11 -3
-20 -9 -20 -12 0 -23 -166 -17 -235 8 -102 38 -98 39 -93 -33 2 -36 10 -70 18
-79 30 -33 41 -47 35 -47 -5 0 37 -41 72 -71 11 -9 33 -22 50 -29 18 -8 30
-17 28 -20 -5 -8 12 -10 108 -11 57 0 84 4 95 15 10 8 24 16 31 18 8 2 25 13
37 26 12 12 26 22 31 22 6 0 13 9 16 21 3 12 10 18 16 15 6 -4 13 4 17 18 3
13 12 27 20 30 8 3 14 11 14 18 0 7 9 19 21 26 12 7 19 16 16 19 -3 3 5 16 19
30 13 13 22 28 19 33 -3 4 2 10 10 14 8 3 15 12 15 21 0 8 4 15 9 15 5 0 14
14 20 30 5 17 15 30 22 30 7 0 10 3 6 6 -3 4 7 32 23 64 16 32 26 61 22 65 -4
5 -2 5 5 1 6 -3 13 1 16 11 3 13 9 6 21 -22 9 -22 23 -53 32 -70 9 -16 28 -52
42 -80 14 -27 34 -57 44 -66 10 -9 18 -21 18 -27 0 -6 6 -17 13 -24 7 -7 28
-35 47 -63 45 -65 141 -158 185 -179 34 -17 185 -29 185 -16 0 4 17 14 39 23
21 10 49 26 62 37 57 47 70 59 69 65 0 3 11 18 25 33 14 15 23 32 21 39 -3 7
-1 15 5 19 6 3 8 12 5 19 -2 7 -2 16 2 19 25 26 -1 68 -34 55 -12 -4 -25 -5
-28 -2 -3 4 -6 1 -6 -5 0 -6 -15 -14 -32 -18 -18 -4 -40 -9 -48 -12 -26 -7
-135 -9 -145 -3 -11 6 -17 8 -40 10 -8 0 -24 10 -35 21 -11 11 -23 19 -26 19
-22 -5 -194 138 -194 161 0 5 -9 12 -20 15 -25 8 -28 45 -2 40 9 -2 18 -4 20
-5 1 -2 6 -3 11 -4 5 0 12 -4 16 -8 4 -4 13 -4 21 -1 8 3 14 1 14 -4 0 -5 14
-10 31 -11 17 -1 40 -7 51 -13 11 -6 34 -12 51 -14 18 -2 32 -4 32 -5 0 -2 27
-4 60 -5 161 -7 226 137 110 245 -15 14 -27 24 -28 22 -1 -2 -13 1 -27 6 -59
22 -119 32 -126 20 -4 -6 5 -20 19 -32 61 -49 28 -126 -50 -119 -54 5 -88 10
-90 13 -2 1 -12 4 -23 5 -11 1 -22 4 -25 5 -3 1 -8 3 -12 4 -5 1 -12 4 -18 7
-5 4 -28 9 -50 13 -80 13 -95 18 -89 27 3 5 1 9 -5 9 -5 0 -17 25 -26 56 -18
63 -11 83 24 65 12 -7 21 -9 21 -6 0 2 24 -4 53 -15 28 -10 70 -21 91 -25 22
-3 44 -9 50 -13 22 -16 97 1 120 27 22 24 26 128 6 141 -8 6 -11 10 -7 10 15
0 -19 27 -59 47 -23 12 -48 17 -62 14z"/>
</g>
</svg>
